<svg width="14" height="14" viewBox="0 0 14 14" fill="none" xmlns="http://www.w3.org/2000/svg">
<path d="M7 0C3.13369 0 0 3.13399 0 7C0 10.866 3.13369 14 7 14C10.8663 14 14 10.8657 14 7C14 3.1343 10.866 0 7 0ZM7.42373 10.1182V10.9285C7.42373 11.0549 7.32534 11.1469 7.19862 11.1469H6.65851C6.53179 11.1469 6.42974 11.0549 6.42974 10.9285V10.1894C5.93259 10.1669 5.43118 10.0609 5.05161 9.91649C4.84599 9.8385 4.73145 9.61826 4.78598 9.40502L4.87402 9.06201C4.90478 8.94169 4.9852 8.84116 5.09517 8.7848C5.20514 8.72753 5.3343 8.72175 5.44976 8.76592C5.81135 8.90574 6.23843 9.00749 6.69446 9.00749C7.27508 9.00749 7.67261 8.78328 7.67261 8.37569C7.67261 7.98851 7.34666 7.7439 6.59241 7.48892C5.50215 7.12215 4.75552 6.61282 4.75552 5.62431C4.75552 4.72779 5.39005 4.02472 6.47482 3.81057V3.07154C6.47482 2.94512 6.58297 2.8318 6.70969 2.8318H7.24979C7.37652 2.8318 7.46943 2.94512 7.46943 3.07154V3.73898C7.94373 3.75939 8.28613 3.82976 8.57248 3.92297C8.78907 3.99365 8.91701 4.22059 8.86005 4.44175L8.78267 4.74881C8.75251 4.86579 8.67514 4.9651 8.56913 5.02237C8.46312 5.07964 8.33792 5.08999 8.22338 5.0507C7.96323 4.96144 7.62387 4.88041 7.19374 4.88041C6.53149 4.88041 6.31733 5.16585 6.31733 5.45128C6.31733 5.78759 6.67405 6.00144 7.5401 6.32769C8.75251 6.75569 9.23961 7.3162 9.23961 8.23282C9.23931 9.13969 8.59868 9.91466 7.42373 10.1182Z" fill="white"/>
</svg>
